<svg xmlns="http://www.w3.org/2000/svg" style="display: none;">
<symbol id="arrow-down"  viewBox="0 0 20 20" fill="none">   
        <path d="M15.8333 7.50012L10 13.3335L4.16668 7.50012"  stroke="currentColor" stroke-width="1.8" stroke-linecap="round" stroke-linejoin="round"/>    
</symbol>
<symbol id="cart" viewBox="0 0 24 24" fill="none" >   
        <path d="M1 2.5H2.65424C3.13263 2.5 3.37183 2.5 3.56628 2.58674C3.73771 2.66321 3.88415 2.78638 3.98886 2.94217C4.10763 3.11888 4.14862 3.35454 4.23058 3.82585L4.6087 6M4.6087 6L5.49173 11.0774C5.67091 12.1077 5.7605 12.6228 6.02583 12.9939C6.25945 13.3207 6.58606 13.5695 6.96311 13.708C7.39133 13.8654 7.91176 13.815 8.95264 13.7143L18.614 12.7793C19.6298 12.681 20.1378 12.6318 20.5221 12.4033C20.8653 12.1993 21.1395 11.8972 21.3095 11.536C21.5 11.1314 21.5 10.6211 21.5 9.6005C21.5 8.51582 21.5 7.97348 21.2922 7.55394C21.1068 7.17971 20.809 6.8729 20.4404 6.67654C20.0272 6.4564 19.4851 6.44036 18.4009 6.40826L4.6087 6Z" stroke="currentColor"  stroke-width="1.8" stroke-linecap="round" stroke-linejoin="round"/>
<circle cx="8.5" cy="19" r="2" stroke="currentColor"  stroke-width="1.8"/>
<circle cx="18" cy="19" r="2" stroke="currentColor"  stroke-width="1.8"/>
</symbol>
<symbol id="heart"  viewBox="0 0 23 20" fill="none">    
        <path d="M11.2778 18.7505C-8.7218 7.69632 5.27819 -4.30368 11.2778 3.28438C17.2782 -4.30368 31.2782 7.69632 11.2778 18.7505Z" stroke="currentColor" stroke-width="1.8"/>     
</symbol>
<symbol id="map" viewBox="0 0 16 19" fill="none">    
        <path fill-rule="evenodd" clip-rule="evenodd" d="M8.89071 17.708C11.0064 16.2644 15.8333 12.4716 15.8333 7.91667C15.8333 3.54441 12.2889 0 7.91667 0C3.54441 0 0 3.54441 0 7.91667C0 12.4716 4.82692 16.2644 6.94262 17.708C7.53425 18.1117 8.29908 18.1117 8.89071 17.708ZM7.91667 10.4167C9.29738 10.4167 10.4167 9.29738 10.4167 7.91667C10.4167 6.53595 9.29738 5.41667 7.91667 5.41667C6.53595 5.41667 5.41667 6.53595 5.41667 7.91667C5.41667 9.29738 6.53595 10.4167 7.91667 10.4167Z" fill="currentColor" />    
</symbol>
<symbol id="search" viewBox="0 0 16 19" fill="none">   
        <path d="M14.2334 14.2334L10.1469 10.1469M10.1469 10.1469C11.1271 9.16663 11.7334 7.81246 11.7334 6.31669C11.7334 3.32515 9.30823 0.900024 6.31669 0.900024C3.32515 0.900024 0.900024 3.32515 0.900024 6.31669C0.900024 9.30823 3.32515 11.7334 6.31669 11.7334C7.81246 11.7334 9.16663 11.1271 10.1469 10.1469Z"  stroke="currentColor"    stroke-width="1.8" stroke-linecap="round" stroke-linejoin="round"/>   
</symbol>
<symbol id="telephone" viewBox="0 0 20 20" fill="none" >   
        <path d="M13.4307 13.0668L12.9152 13.8401C12.8123 13.9944 12.6762 14.1261 12.4969 14.1735C11.9095 14.3287 10.3499 14.3988 7.9755 12.0244C5.60111 9.65004 5.67119 8.09046 5.82641 7.50302C5.8738 7.32368 6.00549 7.1876 6.15983 7.0847L6.93308 6.5692C7.50878 6.1854 7.66435 5.40757 7.28055 4.83187L5.82014 2.64126C5.48514 2.13876 4.83933 1.94678 4.28423 2.18468L3.62544 2.46702C3.12498 2.6815 2.71674 3.06643 2.47324 3.55343C2.2698 3.96031 2.11213 4.38877 2.09076 4.84317C2.02344 6.27515 2.33743 9.80312 6.26713 13.7328C10.1968 17.6625 13.7248 17.9765 15.1568 17.9092C15.6111 17.8878 16.0396 17.7301 16.4465 17.5267C16.9335 17.2832 17.3184 16.8749 17.5329 16.3745L17.8152 15.7157C18.0531 15.1606 17.8612 14.5148 17.3587 14.1798L15.168 12.7194C14.5923 12.3356 13.8145 12.4911 13.4307 13.0668Z" fill="currentColor"/> 
</symbol>
<symbol id="trophy" viewBox="0 0 40 40" fill="none" >   
        <path d="M32.903 2.34375C32.0495 2.34375 31.2494 2.57414 30.5593 2.97437V1.17188C30.5593 0.524687 30.0346 0 29.3874 0H10.6374C9.99016 0 9.46547 0.524687 9.46547 1.17188V2.98867C8.76992 2.57953 7.96063 2.34375 7.09695 2.34375C4.51227 2.34375 2.40945 4.44656 2.40945 7.03125C2.40945 9.00273 2.99367 10.9077 4.09891 12.5402C5.98047 15.3193 8.3007 16.0405 10.2206 16.8084C11.3277 19.5653 13.5663 21.7502 16.3589 22.7846L15.4948 28.2812H15.3249C13.3864 28.2812 11.8093 29.8584 11.8093 31.7969V37.6562H10.6374C9.99023 37.6562 9.46555 38.1809 9.46555 38.8281C9.46555 39.4753 9.99023 40 10.6374 40H29.3874C30.0346 40 30.5593 39.4753 30.5593 38.8281C30.5593 38.1809 30.0346 37.6562 29.3874 37.6562H28.2155V31.7969C28.2155 29.8584 26.6384 28.2812 24.6999 28.2812H24.5301L23.666 22.7847C26.4627 21.7487 28.7038 19.5591 29.8092 16.7966C31.6229 16.0711 34.0003 15.3478 35.9012 12.5402C37.0064 10.9077 37.5906 9.00266 37.5906 7.03125C37.5905 4.44656 35.4877 2.34375 32.903 2.34375ZM9.4568 13.9787C6.59945 12.8357 4.7532 10.1087 4.7532 7.03125C4.7532 5.73891 5.80461 4.6875 7.09695 4.6875C8.3893 4.6875 9.4407 5.73891 9.4407 7.03125C9.4407 7.11367 9.44938 7.19398 9.46555 7.27156V12.8906C9.46555 13.2673 9.48578 13.6392 9.52453 14.0058L9.4568 13.9787ZM25.8718 37.6562H14.153V35.3125H25.8718V37.6562ZM24.6999 30.625C25.3461 30.625 25.8718 31.1507 25.8718 31.7969V32.9688H14.153V31.7969C14.153 31.1507 14.6788 30.625 15.3249 30.625C15.9607 30.625 23.2089 30.625 24.6999 30.625ZM17.8673 28.2812L18.6427 23.3487C19.0912 23.4071 19.5483 23.4375 20.0124 23.4375C20.4766 23.4375 20.9337 23.407 21.3821 23.3487L22.1576 28.2812H17.8673ZM28.2155 12.8906C28.2155 17.4138 24.5356 21.0938 20.0124 21.0938C15.4892 21.0938 11.8093 17.4138 11.8093 12.8906V7.03125H28.2155V12.8906ZM28.2155 4.6875H11.8093V2.34375H28.2155V4.6875ZM30.5431 13.9787L30.5015 13.9953C30.5395 13.6322 30.5592 13.2637 30.5592 12.8906V7.03125C30.5593 5.73891 31.6107 4.6875 32.903 4.6875C34.1954 4.6875 35.2468 5.73891 35.2468 7.03125C35.2468 10.1087 33.4005 12.8358 30.5431 13.9787Z" fill="currentColor"/>
</symbol>
<symbol id="quarantee" viewBox="0 0 40 40" fill="none">   
        <path d="M32.903 2.34375C32.0495 2.34375 31.2494 2.57414 30.5593 2.97437V1.17188C30.5593 0.524687 30.0346 0 29.3874 0H10.6374C9.99016 0 9.46547 0.524687 9.46547 1.17188V2.98867C8.76992 2.57953 7.96063 2.34375 7.09695 2.34375C4.51227 2.34375 2.40945 4.44656 2.40945 7.03125C2.40945 9.00273 2.99367 10.9077 4.09891 12.5402C5.98047 15.3193 8.3007 16.0405 10.2206 16.8084C11.3277 19.5653 13.5663 21.7502 16.3589 22.7846L15.4948 28.2812H15.3249C13.3864 28.2812 11.8093 29.8584 11.8093 31.7969V37.6562H10.6374C9.99023 37.6562 9.46555 38.1809 9.46555 38.8281C9.46555 39.4753 9.99023 40 10.6374 40H29.3874C30.0346 40 30.5593 39.4753 30.5593 38.8281C30.5593 38.1809 30.0346 37.6562 29.3874 37.6562H28.2155V31.7969C28.2155 29.8584 26.6384 28.2812 24.6999 28.2812H24.5301L23.666 22.7847C26.4627 21.7487 28.7038 19.5591 29.8092 16.7966C31.6229 16.0711 34.0003 15.3478 35.9012 12.5402C37.0064 10.9077 37.5906 9.00266 37.5906 7.03125C37.5905 4.44656 35.4877 2.34375 32.903 2.34375ZM9.4568 13.9787C6.59945 12.8357 4.7532 10.1087 4.7532 7.03125C4.7532 5.73891 5.80461 4.6875 7.09695 4.6875C8.3893 4.6875 9.4407 5.73891 9.4407 7.03125C9.4407 7.11367 9.44938 7.19398 9.46555 7.27156V12.8906C9.46555 13.2673 9.48578 13.6392 9.52453 14.0058L9.4568 13.9787ZM25.8718 37.6562H14.153V35.3125H25.8718V37.6562ZM24.6999 30.625C25.3461 30.625 25.8718 31.1507 25.8718 31.7969V32.9688H14.153V31.7969C14.153 31.1507 14.6788 30.625 15.3249 30.625C15.9607 30.625 23.2089 30.625 24.6999 30.625ZM17.8673 28.2812L18.6427 23.3487C19.0912 23.4071 19.5483 23.4375 20.0124 23.4375C20.4766 23.4375 20.9337 23.407 21.3821 23.3487L22.1576 28.2812H17.8673ZM28.2155 12.8906C28.2155 17.4138 24.5356 21.0938 20.0124 21.0938C15.4892 21.0938 11.8093 17.4138 11.8093 12.8906V7.03125H28.2155V12.8906ZM28.2155 4.6875H11.8093V2.34375H28.2155V4.6875ZM30.5431 13.9787L30.5015 13.9953C30.5395 13.6322 30.5592 13.2637 30.5592 12.8906V7.03125C30.5593 5.73891 31.6107 4.6875 32.903 4.6875C34.1954 4.6875 35.2468 5.73891 35.2468 7.03125C35.2468 10.1087 33.4005 12.8358 30.5431 13.9787Z" fill="currentColor"/>
</symbol>
<symbol id="shipping" viewBox="0 0 40 38" fill="none">   
        <path d="M36.8986 19.7346V1.5198C36.8986 0.86997 36.3718 0.34314 35.722 0.34314H4.19674C3.54691 0.34314 3.02008 0.86997 3.02008 1.5198V21.1867C2.45246 21.2694 1.89755 21.4898 1.40664 21.8542C-0.140899 22.9516 -0.506918 25.4073 0.789368 26.9218L6.08928 33.347C9.36996 37.1866 12.855 37.657 18.0359 37.657C22.4819 37.657 24.4696 37.6766 28.3443 36.7937L32.1173 35.8913C32.7291 36.7456 33.7003 37.299 34.7922 37.299H36.6508C38.4975 37.299 40 35.7163 40 33.7708V23.2523C40.0001 21.3947 38.63 19.8688 36.8986 19.7346ZM31.6098 22.1551L30.042 21.3588C27.4642 20.0577 24.4839 20.0095 21.8655 21.2269C21.1511 21.5079 19.5929 22.4506 18.7847 22.4191H13.3445C11.54 22.4191 10.0718 23.8872 10.0718 25.6918V26.5499C10.0617 26.5392 10.0511 26.5291 10.0411 26.5182L6.15619 22.3013C5.9211 22.0462 5.65697 21.8326 5.37348 21.6613V9.98736H15.0027V14.3007C15.0027 14.9505 15.5295 15.4773 16.1794 15.4773H23.6042C24.254 15.4773 24.7808 14.9505 24.7808 14.3007V9.98736H34.5454V19.7346C33.1706 19.8408 32.0242 20.8243 31.6098 22.1551ZM17.356 9.98736H22.4274V13.124H17.356V9.98736ZM34.5453 7.63404H24.7808V2.69646H34.5454V7.63404H34.5453ZM22.4275 2.69646V7.63412H17.356V2.69646H22.4275ZM15.0026 2.69646V7.63412H5.3734V2.69646H15.0026ZM27.7982 34.5046C24.2188 35.3244 22.0631 35.2912 18.0781 35.2912C13.2146 35.2912 10.8646 35.2126 7.90479 31.8494L2.60488 25.4243C1.683 24.2238 3.35276 22.8067 4.4254 23.8957L8.31034 28.1127C9.3371 29.1961 10.6291 29.7923 12.2216 29.8274H22.9926C23.6425 29.8274 24.1693 29.3006 24.1693 28.6507C24.1693 28.0009 23.6425 27.4741 22.9926 27.4741H12.425V25.6916C12.425 25.1847 12.8374 24.7722 13.3444 24.7722H18.7847C20.0103 24.86 21.7793 23.8366 22.8575 23.3607C24.8186 22.4489 27.0508 22.485 28.9789 23.4581L31.4432 24.7098V33.6326L27.7982 34.5046ZM37.6467 33.7707C37.6467 34.4186 37.2 34.9456 36.6509 34.9456H34.7922C34.2431 34.9456 33.7965 34.4186 33.7965 33.7707V23.2523C33.7965 22.6044 34.2432 22.0773 34.7922 22.0773H36.6509C37.2 22.0773 37.6467 22.6044 37.6467 23.2523V33.7707Z" fill="currentColor"/>
</symbol>
<symbol id="customer" viewBox="0 0 36 40" fill="none">   
        <path d="M34.4624 15.9752C34.1995 7.12165 26.9161 0 18 0C9.08381 0 1.80043 7.12165 1.53745 15.9752L0.352905 17.1598V25.1932L1.52938 26.3696V31.8431C1.52938 35.0435 4.13298 37.6471 7.3333 37.6471H8.79055C9.2762 39.0164 10.5839 40 12.1176 40H14.4706C16.0053 40 17.3137 39.015 17.7986 37.6442C17.8658 37.6454 17.9331 37.6471 18 37.6471C23.6814 37.6471 28.4351 33.5987 29.5281 28.2353H32.6049L35.647 25.1932V17.1598L34.4624 15.9752ZM18 2.35294C24.9828 2.35294 30.7969 7.44933 31.9204 14.1176H29.5281C28.4351 8.7542 23.6814 4.70588 18 4.70588C12.3186 4.70588 7.56483 8.7542 6.47181 14.1176H4.07949C5.20302 7.44933 11.0171 2.35294 18 2.35294ZM27.1139 14.1176C23.3109 14.1063 20.6246 14.3379 18.4098 11.1004L17.3344 9.52839L16.4102 11.1938C15.0635 13.6204 13.2499 14.1176 10.9411 14.1176H8.886C9.93346 10.0629 13.6225 7.05882 18 7.05882C22.3775 7.05882 26.0665 10.0629 27.1139 14.1176ZM6.23526 25.8824H4.36961L2.70585 24.2186V18.1344L4.36961 16.4706H6.23526V25.8824ZM3.88232 31.8431V28.2353H6.46953C6.91244 30.4294 7.97212 32.4435 9.542 34.0611C9.21291 34.4127 8.95479 34.8311 8.79055 35.2941H7.3333C5.4304 35.2941 3.88232 33.746 3.88232 31.8431ZM14.4706 37.6471H12.1176C11.4688 37.6471 10.9411 37.1194 10.9411 36.4706C10.9411 35.8219 11.4688 35.2941 12.1176 35.2941H14.4706C15.1193 35.2941 15.647 35.8219 15.647 36.4706C15.647 37.1194 15.1193 37.6471 14.4706 37.6471ZM27.4117 25.8824C27.4117 31.072 23.1896 35.2941 18 35.2941C17.9325 35.2941 17.8645 35.2928 17.7966 35.2912C17.3102 33.9234 16.0032 32.9412 14.4706 32.9412C12.0549 32.9465 12.0934 32.9291 11.7923 32.9568C9.74977 31.1665 8.5882 28.6166 8.5882 25.8824V16.4706H10.9411C13.0233 16.4706 15.5589 16.1273 17.5218 13.7384C20.1116 16.4524 23.2764 16.4706 26.1175 16.4706H27.4117V25.8824ZM33.2941 24.2186L31.6303 25.8824H29.7647V16.4706H31.6303L33.2941 18.1344V24.2186Z" fill="currentColor"/>
<symbol id="p-right"   viewBox="0 0 9 16" fill="none">    
        <path d="M0.900024 0.900024L7.90002 7.90002L0.900024 14.9"  stroke="currentColor"    stroke-width="1.8"    stroke-linecap="round" stroke-linejoin="round"/>     
</symbol>        
<symbol id="p-left"  viewBox="0 0 9 16" fill="none">    
        <path d="M7.90002 0.900024L0.900024 7.90002L7.90002 14.9" stroke="currentColor" stroke-width="1.8" stroke-linecap="round" stroke-linejoin="round"/>
</symbol>        
<symbol id="arrow-right"  viewBox="0 0 24 24" fill="none">    
        <path d="M19.3652 12.56L14.3852 17.56C14.2252 17.72 14.0251 17.8 13.8251 17.8C13.6251 17.8 13.4251 17.72 13.2652 17.56C12.9451 17.24 12.9451 16.74 13.2652 16.42L16.8852 12.78H5.20515C4.76515 12.78 4.40515 12.42 4.40515 11.98C4.40515 11.54 4.76515 11.18 5.20515 11.18H16.8852L13.2652 7.54004C12.9451 7.22004 12.9451 6.72003 13.2652 6.40003C13.5851 6.08003 14.0852 6.08003 14.4052 6.40003L19.3852 11.4C19.6852 11.74 19.6852 12.26 19.3652 12.56Z" fill="currentColor"/>
</symbol>        
<symbol id="send" viewBox="0 0 18 18" fill="none" >    
        <path d="M17.7715 0.218426C17.6703 0.117681 17.5424 0.0479286 17.4029 0.0173707C17.2634 -0.0131872 17.1181 -0.00328057 16.984 0.0459258L0.484014 6.04593C0.341715 6.0999 0.219204 6.19589 0.132753 6.32114C0.0463009 6.44639 0 6.59498 0 6.74718C0 6.89937 0.0463009 7.04796 0.132753 7.17321C0.219204 7.29846 0.341715 7.39445 0.484014 7.44843L6.92651 10.0209L11.6815 5.25093L12.739 6.30843L7.96151 11.0859L10.5415 17.5284C10.5971 17.668 10.6933 17.7876 10.8177 17.8719C10.942 17.9561 11.0888 18.0011 11.239 18.0009C11.3906 17.9978 11.5376 17.9489 11.6608 17.8605C11.784 17.7721 11.8775 17.6485 11.929 17.5059L17.929 1.00593C17.9801 0.873233 17.9924 0.728749 17.9646 0.589319C17.9367 0.449888 17.8697 0.321258 17.7715 0.218426Z" fill="currentColor"/>
</symbol>        
</svg>