<svg width="23" height="14" viewBox="0 0 23 14" fill="none" xmlns="http://www.w3.org/2000/svg">
<path d="M0.900024 0.900024H2.55427C3.03266 0.900024 3.27185 0.900024 3.46631 0.986765C3.63773 1.06323 3.78417 1.1864 3.88888 1.34219C4.00766 1.51891 4.04864 1.75456 4.13061 2.22588L4.50872 4.40002M4.50872 4.40002L5.39175 9.47746C5.57093 10.5077 5.66052 11.0229 5.92585 11.394C6.15948 11.7207 6.48608 11.9696 6.86313 12.1081C7.29135 12.2654 7.81179 12.215 8.85267 12.1143L18.514 11.1793C19.5299 11.081 20.0378 11.0319 20.4222 10.8033C20.7653 10.5993 21.0395 10.2972 21.2096 9.93602C21.4 9.53142 21.4 9.02112 21.4 8.00053C21.4 6.91585 21.4 6.37351 21.1922 5.95396C21.0068 5.57974 20.709 5.27292 20.3404 5.07656C19.9272 4.85643 19.3851 4.84038 18.3009 4.80829L4.50872 4.40002Z"  stroke-width="1.8" stroke-linecap="round" stroke-linejoin="round"/>
</svg>
